<svg width="100" height="100" viewBox="0 0 100 100" fill="none" xmlns="http://www.w3.org/2000/svg">
<circle cx="50" cy="50" r="50" fill="black"/>
<rect x="50" y="50" width="50" height="50" fill="black"/>
<path d="M27.896 68.04C27.896 66.2053 28.2373 64.5947 28.92 63.208C29.624 61.8213 30.5733 60.7547 31.768 60.008C32.9627 59.2613 34.296 58.888 35.768 58.888C37.0267 58.888 38.1253 59.144 39.064 59.656C40.024 60.168 40.76 60.84 41.272 61.672V59.144H46.744V77H41.272V74.472C40.7387 75.304 39.992 75.976 39.032 76.488C38.0933 77 36.9947 77.256 35.736 77.256C34.2853 77.256 32.9627 76.8827 31.768 76.136C30.5733 75.368 29.624 74.2907 28.92 72.904C28.2373 71.496 27.896 69.8747 27.896 68.04ZM41.272 68.072C41.272 66.7067 40.888 65.6293 40.12 64.84C39.3733 64.0507 38.456 63.656 37.368 63.656C36.28 63.656 35.352 64.0507 34.584 64.84C33.8373 65.608 33.464 66.6747 33.464 68.04C33.464 69.4053 33.8373 70.4933 34.584 71.304C35.352 72.0933 36.28 72.488 37.368 72.488C38.456 72.488 39.3733 72.0933 40.12 71.304C40.888 70.5147 41.272 69.4373 41.272 68.072ZM56.1748 61.672C56.7081 60.84 57.4441 60.168 58.3828 59.656C59.3214 59.144 60.4201 58.888 61.6788 58.888C63.1508 58.888 64.4841 59.2613 65.6788 60.008C66.8734 60.7547 67.8121 61.8213 68.4948 63.208C69.1988 64.5947 69.5508 66.2053 69.5508 68.04C69.5508 69.8747 69.1988 71.496 68.4948 72.904C67.8121 74.2907 66.8734 75.368 65.6788 76.136C64.4841 76.8827 63.1508 77.256 61.6788 77.256C60.4414 77.256 59.3428 77 58.3828 76.488C57.4441 75.976 56.7081 75.3147 56.1748 74.504V85.512H50.7028V59.144H56.1748V61.672ZM63.9828 68.04C63.9828 66.6747 63.5988 65.608 62.8308 64.84C62.0841 64.0507 61.1561 63.656 60.0468 63.656C58.9588 63.656 58.0308 64.0507 57.2628 64.84C56.5161 65.6293 56.1428 66.7067 56.1428 68.072C56.1428 69.4373 56.5161 70.5147 57.2628 71.304C58.0308 72.0933 58.9588 72.488 60.0468 72.488C61.1348 72.488 62.0628 72.0933 62.8308 71.304C63.5988 70.4933 63.9828 69.4053 63.9828 68.04ZM71.3335 68.04C71.3335 66.2053 71.6748 64.5947 72.3575 63.208C73.0615 61.8213 74.0108 60.7547 75.2055 60.008C76.4002 59.2613 77.7335 58.888 79.2055 58.888C80.3788 58.888 81.4455 59.1333 82.4055 59.624C83.3868 60.1147 84.1548 60.776 84.7095 61.608V53.32H90.1815V77H84.7095V74.44C84.1975 75.2933 83.4615 75.976 82.5015 76.488C81.5628 77 80.4642 77.256 79.2055 77.256C77.7335 77.256 76.4002 76.8827 75.2055 76.136C74.0108 75.368 73.0615 74.2907 72.3575 72.904C71.6748 71.496 71.3335 69.8747 71.3335 68.04ZM84.7095 68.072C84.7095 66.7067 84.3255 65.6293 83.5575 64.84C82.8108 64.0507 81.8935 63.656 80.8055 63.656C79.7175 63.656 78.7895 64.0507 78.0215 64.84C77.2748 65.608 76.9015 66.6747 76.9015 68.04C76.9015 69.4053 77.2748 70.4933 78.0215 71.304C78.7895 72.0933 79.7175 72.488 80.8055 72.488C81.8935 72.488 82.8108 72.0933 83.5575 71.304C84.3255 70.5147 84.7095 69.4373 84.7095 68.072Z" fill="white"/>
</svg>
